ffmpeg started on 2026-01-13 at 11:16:50
Report written to "D:\Convert\FFMetrics\reports\ssim_report-6.txt"
Log level: 32
Command line:
ffmpeg -hide_banner -nostdin -r 24000/1001 -i "F:\\Convert\\files\\[DC] Make Heroine ga Oosugiru - 07_Telegram_HEVC(74).mkv" -r 24000/1001 -i "F:\\Convert\\files\\[DC] Make Heroine ga Oosugiru - 07_Telegram.mp4" -lavfi "[0:v]settb=AVTB,setpts=PTS-STARTPTS,format=pix_fmts=yuv420p10le,fps=24000/1001,scale=1920:1080:flags=lanczos:param0=3:out_range=limited:out_color_matrix=bt709:out_chroma_loc=left,setsar=1/1,setdar=(1920/1080)*(1/1),colorspace=format=yuv420p10:range=tv:primaries=bt709:trc=bt709:space=bt709:fast=0[main];[1:v]settb=AVTB,setpts=PTS-STARTPTS,format=pix_fmts=yuv420p,fps=24000/1001,scale=1920:1080:flags=lanczos:param0=3:out_range=limited:out_color_matrix=bt709:out_chroma_loc=left,setsar=1.000,setdar=1.778,colorspace=format=yuv420p:range=tv:primaries=bt709:trc=bt709:space=bt709:fast=0[ref];[main][ref]ssim=eof_action=endall:stats_file='D\\:/Convert/FFMetrics/logs/ssim_logfile-6.txt'" -f null -
Input #0, matroska,webm, from 'F:\Convert\files\[DC] Make Heroine ga Oosugiru - 07_Telegram_HEVC(74).mkv':
  Metadata:
    COMPATIBLE_BRANDS: isomiso2avc1mp41
    MAJOR_BRAND     : isom
    MINOR_VERSION   : 512
    ENCODER         : Lavf61.7.100
  Duration: 00:24:06.79, start: -0.021000, bitrate: 979 kb/s
  Stream #0:0: Video: hevc (Main 10), yuv420p10le(tv, bt709, progressive), 1920x1080 [SAR 1:1 DAR 16:9], 23.98 fps, 23.98 tbr, 1k tbn (default)
      Metadata:
        HANDLER_NAME    : VideoHandler
        VENDOR_ID       : [0][0][0][0]
        ENCODER         : Lavc61.19.100 libx265
        BPS             : 782795
        DURATION        : 00:24:06.569708333
        NUMBER_OF_FRAMES: 34683
        NUMBER_OF_BYTES : 141545947
        _STATISTICS_WRITING_APP: mkvpropedit v94.0 ('Initiate') 64-bit
        _STATISTICS_WRITING_DATE_UTC: 2026-01-11 14:47:04
        _STATISTICS_TAGS: BPS DURATION NUMBER_OF_FRAMES NUMBER_OF_BYTES
  Stream #0:1: Audio: aac (LC), 48000 Hz, stereo, fltp (default)
      Metadata:
        HANDLER_NAME    : SoundHandler
        VENDOR_ID       : [0][0][0][0]
        ENCODER         : Lavc61.19.100 aac
        BPS             : 193194
        DURATION        : 00:24:06.784000000
        NUMBER_OF_FRAMES: 67819
        NUMBER_OF_BYTES : 34938755
        _STATISTICS_WRITING_APP: mkvpropedit v94.0 ('Initiate') 64-bit
        _STATISTICS_WRITING_DATE_UTC: 2026-01-11 14:47:04
        _STATISTICS_TAGS: BPS DURATION NUMBER_OF_FRAMES NUMBER_OF_BYTES
Input #1, mov,mp4,m4a,3gp,3g2,mj2, from 'F:\Convert\files\[DC] Make Heroine ga Oosugiru - 07_Telegram.mp4':
  Metadata:
    major_brand     : isom
    minor_version   : 512
    compatible_brands: isomiso2avc1mp41
    encoder         : Lavf60.16.100
  Duration: 00:24:06.74, start: 0.000000, bitrate: 3764 kb/s
  Stream #1:0[0x1](und): Video: h264 (High) (avc1 / 0x31637661), yuv420p(tv, bt709, progressive), 1920x1080 [SAR 1:1 DAR 16:9], 3616 kb/s, 23.98 fps, 23.98 tbr, 24k tbn (default)
      Metadata:
        handler_name    : VideoHandler
        vendor_id       : [0][0][0][0]
        encoder         : Lavc60.31.102 h264_qsv
  Stream #1:1[0x2](und): Audio: aac (HE-AACv2) (mp4a / 0x6134706D), 48000 Hz, stereo, fltp, 144 kb/s (default)
      Metadata:
        handler_name    : SoundHandler
        vendor_id       : [0][0][0][0]
Stream mapping:
  Stream #0:0 (hevc) -> settb:default
  Stream #1:0 (h264) -> settb:default
  ssim:default -> Stream #0:0 (wrapped_avframe)
  Stream #0:1 -> #0:1 (aac (native) -> pcm_s16le (native))
Output #0, null, to 'pipe:':
  Metadata:
    COMPATIBLE_BRANDS: isomiso2avc1mp41
    MAJOR_BRAND     : isom
    MINOR_VERSION   : 512
    encoder         : Lavf61.7.100
  Stream #0:0: Video: wrapped_avframe, yuv420p10le(tv, bt709, progressive), 1920x1080 [SAR 1:1 DAR 16:9], q=2-31, 200 kb/s, 23.98 fps, 23.98 tbn
      Metadata:
        encoder         : Lavc61.19.100 wrapped_avframe
  Stream #0:1: Audio: pcm_s16le, 48000 Hz, stereo, s16, 1536 kb/s (default)
      Metadata:
        HANDLER_NAME    : SoundHandler
        VENDOR_ID       : [0][0][0][0]
        _STATISTICS_TAGS: BPS DURATION NUMBER_OF_FRAMES NUMBER_OF_BYTES
        BPS             : 193194
        DURATION        : 00:24:06.784000000
        NUMBER_OF_FRAMES: 67819
        NUMBER_OF_BYTES : 34938755
        _STATISTICS_WRITING_APP: mkvpropedit v94.0 ('Initiate') 64-bit
        _STATISTICS_WRITING_DATE_UTC: 2026-01-11 14:47:04
        encoder         : Lavc61.19.100 pcm_s16le
frame=  123 fps=0.0 q=-0.0 size=N/A time=00:00:05.13 bitrate=N/A speed=9.77x    frame=  270 fps=260 q=-0.0 size=N/A time=00:00:11.26 bitrate=N/A speed=10.9x    frame=  455 fps=294 q=-0.0 size=N/A time=00:00:18.97 bitrate=N/A speed=12.3x    frame=  617 fps=298 q=-0.0 size=N/A time=00:00:25.73 bitrate=N/A speed=12.4x    frame=  787 fps=305 q=-0.0 size=N/A time=00:00:32.82 bitrate=N/A speed=12.7x    frame=  926 fps=299 q=-0.0 size=N/A time=00:00:38.62 bitrate=N/A speed=12.5x    frame= 1047 fps=289 q=-0.0 size=N/A time=00:00:43.66 bitrate=N/A speed=12.1x    frame= 1165 fps=282 q=-0.0 size=N/A time=00:00:48.59 bitrate=N/A speed=11.8x    frame= 1306 fps=281 q=-0.0 size=N/A time=00:00:54.47 bitrate=N/A speed=11.7x    frame= 1454 fps=282 q=-0.0 size=N/A time=00:01:00.64 bitrate=N/A speed=11.8x    frame= 1594 fps=281 q=-0.0 size=N/A time=00:01:06.48 bitrate=N/A speed=11.7x    frame= 1745 fps=282 q=-0.0 size=N/A time=00:01:12.78 bitrate=N/A speed=11.7x    frame= 1891 fps=282 q=-0.0 size=N/A time=00:01:18.87 bitrate=N/A speed=11.8x    frame= 2046 fps=283 q=-0.0 size=N/A time=00:01:25.33 bitrate=N/A speed=11.8x    frame= 2153 fps=278 q=-0.0 size=N/A time=00:01:29.79 bitrate=N/A speed=11.6x    frame= 2290 fps=277 q=-0.0 size=N/A time=00:01:35.51 bitrate=N/A speed=11.6x    frame= 2429 fps=277 q=-0.0 size=N/A time=00:01:41.30 bitrate=N/A speed=11.5x    frame= 2556 fps=275 q=-0.0 size=N/A time=00:01:46.60 bitrate=N/A speed=11.5x    frame= 2713 fps=277 q=-0.0 size=N/A time=00:01:53.15 bitrate=N/A speed=11.5x    frame= 2879 fps=279 q=-0.0 size=N/A time=00:02:00.07 bitrate=N/A speed=11.6x    frame= 2995 fps=276 q=-0.0 size=N/A time=00:02:04.91 bitrate=N/A speed=11.5x    frame= 3168 fps=279 q=-0.0 size=N/A time=00:02:12.13 bitrate=N/A speed=11.6x    frame= 3339 fps=282 q=-0.0 size=N/A time=00:02:19.26 bitrate=N/A speed=11.7x    frame= 3514 fps=284 q=-0.0 size=N/A time=00:02:26.56 bitrate=N/A speed=11.8x    frame= 3674 fps=285 q=-0.0 size=N/A time=00:02:33.23 bitrate=N/A speed=11.9x    frame= 3844 fps=287 q=-0.0 size=N/A time=00:02:40.32 bitrate=N/A speed=  12x    frame= 4003 fps=287 q=-0.0 size=N/A time=00:02:46.95 bitrate=N/A speed=  12x    frame= 4171 fps=289 q=-0.0 size=N/A time=00:02:53.96 bitrate=N/A speed=  12x    frame= 4335 fps=290 q=-0.0 size=N/A time=00:03:00.80 bitrate=N/A speed=12.1x    frame= 4516 fps=292 q=-0.0 size=N/A time=00:03:08.35 bitrate=N/A speed=12.2x    frame= 4705 fps=294 q=-0.0 size=N/A time=00:03:16.23 bitrate=N/A speed=12.3x    frame= 4866 fps=295 q=-0.0 size=N/A time=00:03:22.95 bitrate=N/A speed=12.3x    frame= 5031 fps=296 q=-0.0 size=N/A time=00:03:29.83 bitrate=N/A speed=12.3x    frame= 5207 fps=297 q=-0.0 size=N/A time=00:03:37.17 bitrate=N/A speed=12.4x    frame= 5346 fps=296 q=-0.0 size=N/A time=00:03:42.97 bitrate=N/A speed=12.3x    frame= 5527 fps=298 q=-0.0 size=N/A time=00:03:50.52 bitrate=N/A speed=12.4x    frame= 5699 fps=299 q=-0.0 size=N/A time=00:03:57.69 bitrate=N/A speed=12.5x    frame= 5879 fps=300 q=-0.0 size=N/A time=00:04:05.20 bitrate=N/A speed=12.5x    frame= 6042 fps=300 q=-0.0 size=N/A time=00:04:12.00 bitrate=N/A speed=12.5x    frame= 6220 fps=301 q=-0.0 size=N/A time=00:04:19.42 bitrate=N/A speed=12.6x    frame= 6386 fps=302 q=-0.0 size=N/A time=00:04:26.34 bitrate=N/A speed=12.6x    frame= 6561 fps=303 q=-0.0 size=N/A time=00:04:33.64 bitrate=N/A speed=12.6x    frame= 6741 fps=304 q=-0.0 size=N/A time=00:04:41.15 bitrate=N/A speed=12.7x    frame= 6917 fps=305 q=-0.0 size=N/A time=00:04:48.49 bitrate=N/A speed=12.7x    frame= 7089 fps=305 q=-0.0 size=N/A time=00:04:55.67 bitrate=N/A speed=12.7x    frame= 7253 fps=306 q=-0.0 size=N/A time=00:05:02.51 bitrate=N/A speed=12.8x    frame= 7439 fps=307 q=-0.0 size=N/A time=00:05:10.26 bitrate=N/A speed=12.8x    frame= 7573 fps=306 q=-0.0 size=N/A time=00:05:15.85 bitrate=N/A speed=12.8x    frame= 7735 fps=306 q=-0.0 size=N/A time=00:05:22.61 bitrate=N/A speed=12.8x    frame= 7911 fps=307 q=-0.0 size=N/A time=00:05:29.95 bitrate=N/A speed=12.8x    frame= 8090 fps=308 q=-0.0 size=N/A time=00:05:37.42 bitrate=N/A speed=12.8x    frame= 8260 fps=308 q=-0.0 size=N/A time=00:05:44.51 bitrate=N/A speed=12.8x    frame= 8433 fps=309 q=-0.0 size=N/A time=00:05:51.72 bitrate=N/A speed=12.9x    frame= 8609 fps=309 q=-0.0 size=N/A time=00:05:59.06 bitrate=N/A speed=12.9x    frame= 8777 fps=309 q=-0.0 size=N/A time=00:06:06.07 bitrate=N/A speed=12.9x    frame= 8948 fps=310 q=-0.0 size=N/A time=00:06:13.20 bitrate=N/A speed=12.9x    frame= 9129 fps=311 q=-0.0 size=N/A time=00:06:20.75 bitrate=N/A speed=  13x    frame= 9308 fps=311 q=-0.0 size=N/A time=00:06:28.22 bitrate=N/A speed=  13x    frame= 9482 fps=312 q=-0.0 size=N/A time=00:06:35.47 bitrate=N/A speed=  13x    frame= 9660 fps=312 q=-0.0 size=N/A time=00:06:42.90 bitrate=N/A speed=  13x    frame= 9841 fps=313 q=-0.0 size=N/A time=00:06:50.45 bitrate=N/A speed=  13x    frame= 9986 fps=312 q=-0.0 size=N/A time=00:06:56.49 bitrate=N/A speed=  13x    frame=10157 fps=312 q=-0.0 size=N/A time=00:07:03.63 bitrate=N/A speed=  13x    frame=10335 fps=313 q=-0.0 size=N/A time=00:07:11.05 bitrate=N/A speed=13.1x    frame=10516 fps=314 q=-0.0 size=N/A time=00:07:18.60 bitrate=N/A speed=13.1x    frame=10687 fps=314 q=-0.0 size=N/A time=00:07:25.73 bitrate=N/A speed=13.1x    frame=10864 fps=314 q=-0.0 size=N/A time=00:07:33.11 bitrate=N/A speed=13.1x    frame=11026 fps=314 q=-0.0 size=N/A time=00:07:39.87 bitrate=N/A speed=13.1x    frame=11202 fps=315 q=-0.0 size=N/A time=00:07:47.21 bitrate=N/A speed=13.1x    frame=11366 fps=315 q=-0.0 size=N/A time=00:07:54.09 bitrate=N/A speed=13.1x    frame=11549 fps=315 q=-0.0 size=N/A time=00:08:01.68 bitrate=N/A speed=13.1x    frame=11719 fps=315 q=-0.0 size=N/A time=00:08:08.77 bitrate=N/A speed=13.2x    frame=11885 fps=316 q=-0.0 size=N/A time=00:08:15.70 bitrate=N/A speed=13.2x    frame=12058 fps=316 q=-0.0 size=N/A time=00:08:22.91 bitrate=N/A speed=13.2x    frame=12214 fps=316 q=-0.0 size=N/A time=00:08:29.42 bitrate=N/A speed=13.2x    frame=12378 fps=316 q=-0.0 size=N/A time=00:08:36.26 bitrate=N/A speed=13.2x    frame=12549 fps=316 q=-0.0 size=N/A time=00:08:43.39 bitrate=N/A speed=13.2x    frame=12714 fps=316 q=-0.0 size=N/A time=00:08:50.27 bitrate=N/A speed=13.2x    frame=12891 fps=316 q=-0.0 size=N/A time=00:08:57.66 bitrate=N/A speed=13.2x    frame=13068 fps=317 q=-0.0 size=N/A time=00:09:05.04 bitrate=N/A speed=13.2x    frame=13233 fps=317 q=-0.0 size=N/A time=00:09:11.92 bitrate=N/A speed=13.2x    frame=13400 fps=317 q=-0.0 size=N/A time=00:09:18.89 bitrate=N/A speed=13.2x    frame=13585 fps=317 q=-0.0 size=N/A time=00:09:26.60 bitrate=N/A speed=13.2x    frame=13767 fps=318 q=-0.0 size=N/A time=00:09:34.19 bitrate=N/A speed=13.3x    frame=13932 fps=318 q=-0.0 size=N/A time=00:09:41.08 bitrate=N/A speed=13.3x    frame=14107 fps=318 q=-0.0 size=N/A time=00:09:48.37 bitrate=N/A speed=13.3x    frame=14282 fps=318 q=-0.0 size=N/A time=00:09:55.67 bitrate=N/A speed=13.3x    frame=14462 fps=319 q=-0.0 size=N/A time=00:10:03.18 bitrate=N/A speed=13.3x    frame=14607 fps=318 q=-0.0 size=N/A time=00:10:09.23 bitrate=N/A speed=13.3x    frame=14790 fps=319 q=-0.0 size=N/A time=00:10:16.86 bitrate=N/A speed=13.3x    frame=14972 fps=319 q=-0.0 size=N/A time=00:10:24.45 bitrate=N/A speed=13.3x    frame=15146 fps=319 q=-0.0 size=N/A time=00:10:31.71 bitrate=N/A speed=13.3x    frame=15327 fps=319 q=-0.0 size=N/A time=00:10:39.26 bitrate=N/A speed=13.3x    frame=15505 fps=320 q=-0.0 size=N/A time=00:10:46.68 bitrate=N/A speed=13.3x    frame=15672 fps=320 q=-0.0 size=N/A time=00:10:53.65 bitrate=N/A speed=13.3x    frame=15855 fps=320 q=-0.0 size=N/A time=00:11:01.28 bitrate=N/A speed=13.4x    frame=15969 fps=319 q=-0.0 size=N/A time=00:11:06.04 bitrate=N/A speed=13.3x    frame=16148 fps=319 q=-0.0 size=N/A time=00:11:13.50 bitrate=N/A speed=13.3x    frame=16328 fps=320 q=-0.0 size=N/A time=00:11:21.01 bitrate=N/A speed=13.3x    frame=16506 fps=320 q=-0.0 size=N/A time=00:11:28.43 bitrate=N/A speed=13.3x    frame=16691 fps=320 q=-0.0 size=N/A time=00:11:36.15 bitrate=N/A speed=13.4x    frame=16864 fps=321 q=-0.0 size=N/A time=00:11:43.36 bitrate=N/A speed=13.4x    frame=17041 fps=321 q=-0.0 size=N/A time=00:11:50.75 bitrate=N/A speed=13.4x    frame=17234 fps=321 q=-0.0 size=N/A time=00:11:58.80 bitrate=N/A speed=13.4x    frame=17413 fps=322 q=-0.0 size=N/A time=00:12:06.26 bitrate=N/A speed=13.4x    frame=17603 fps=322 q=-0.0 size=N/A time=00:12:14.19 bitrate=N/A speed=13.4x    frame=17780 fps=322 q=-0.0 size=N/A time=00:12:21.57 bitrate=N/A speed=13.4x    frame=17955 fps=322 q=-0.0 size=N/A time=00:12:28.87 bitrate=N/A speed=13.4x    frame=18149 fps=323 q=-0.0 size=N/A time=00:12:36.96 bitrate=N/A speed=13.5x    frame=18292 fps=322 q=-0.0 size=N/A time=00:12:42.92 bitrate=N/A speed=13.4x    frame=18463 fps=322 q=-0.0 size=N/A time=00:12:50.06 bitrate=N/A speed=13.4x    frame=18642 fps=323 q=-0.0 size=N/A time=00:12:57.52 bitrate=N/A speed=13.5x    frame=18822 fps=323 q=-0.0 size=N/A time=00:13:05.03 bitrate=N/A speed=13.5x    frame=18999 fps=323 q=-0.0 size=N/A time=00:13:12.41 bitrate=N/A speed=13.5x    frame=19178 fps=323 q=-0.0 size=N/A time=00:13:19.88 bitrate=N/A speed=13.5x    frame=19345 fps=323 q=-0.0 size=N/A time=00:13:26.84 bitrate=N/A speed=13.5x    frame=19527 fps=323 q=-0.0 size=N/A time=00:13:34.43 bitrate=N/A speed=13.5x    frame=19708 fps=324 q=-0.0 size=N/A time=00:13:41.98 bitrate=N/A speed=13.5x    frame=19884 fps=324 q=-0.0 size=N/A time=00:13:49.32 bitrate=N/A speed=13.5x    frame=20059 fps=324 q=-0.0 size=N/A time=00:13:56.62 bitrate=N/A speed=13.5x    frame=20235 fps=324 q=-0.0 size=N/A time=00:14:03.96 bitrate=N/A speed=13.5x    frame=20400 fps=324 q=-0.0 size=N/A time=00:14:10.85 bitrate=N/A speed=13.5x    frame=20575 fps=324 q=-0.0 size=N/A time=00:14:18.14 bitrate=N/A speed=13.5x    frame=20694 fps=323 q=-0.0 size=N/A time=00:14:23.11 bitrate=N/A speed=13.5x    frame=20876 fps=324 q=-0.0 size=N/A time=00:14:30.70 bitrate=N/A speed=13.5x    frame=21055 fps=324 q=-0.0 size=N/A time=00:14:38.16 bitrate=N/A speed=13.5x    frame=21236 fps=324 q=-0.0 size=N/A time=00:14:45.71 bitrate=N/A speed=13.5x    frame=21407 fps=324 q=-0.0 size=N/A time=00:14:52.85 bitrate=N/A speed=13.5x    frame=21592 fps=324 q=-0.0 size=N/A time=00:15:00.56 bitrate=N/A speed=13.5x    frame=21757 fps=324 q=-0.0 size=N/A time=00:15:07.44 bitrate=N/A speed=13.5x    frame=21947 fps=325 q=-0.0 size=N/A time=00:15:15.37 bitrate=N/A speed=13.5x    frame=22121 fps=325 q=-0.0 size=N/A time=00:15:22.63 bitrate=N/A speed=13.5x    frame=22298 fps=325 q=-0.0 size=N/A time=00:15:30.01 bitrate=N/A speed=13.6x    frame=22474 fps=325 q=-0.0 size=N/A time=00:15:37.35 bitrate=N/A speed=13.6x    frame=22663 fps=325 q=-0.0 size=N/A time=00:15:45.23 bitrate=N/A speed=13.6x    frame=22832 fps=325 q=-0.0 size=N/A time=00:15:52.28 bitrate=N/A speed=13.6x    frame=22989 fps=325 q=-0.0 size=N/A time=00:15:58.83 bitrate=N/A speed=13.6x    frame=23163 fps=325 q=-0.0 size=N/A time=00:16:06.09 bitrate=N/A speed=13.6x    frame=23330 fps=325 q=-0.0 size=N/A time=00:16:13.05 bitrate=N/A speed=13.6x    frame=23512 fps=326 q=-0.0 size=N/A time=00:16:20.64 bitrate=N/A speed=13.6x    frame=23697 fps=326 q=-0.0 size=N/A time=00:16:28.36 bitrate=N/A speed=13.6x    frame=23874 fps=326 q=-0.0 size=N/A time=00:16:35.74 bitrate=N/A speed=13.6x    frame=24038 fps=326 q=-0.0 size=N/A time=00:16:42.58 bitrate=N/A speed=13.6x    frame=24218 fps=326 q=-0.0 size=N/A time=00:16:50.09 bitrate=N/A speed=13.6x    frame=24391 fps=326 q=-0.0 size=N/A time=00:16:57.30 bitrate=N/A speed=13.6x    frame=24575 fps=326 q=-0.0 size=N/A time=00:17:04.98 bitrate=N/A speed=13.6x    frame=24757 fps=326 q=-0.0 size=N/A time=00:17:12.57 bitrate=N/A speed=13.6x    frame=24940 fps=327 q=-0.0 size=N/A time=00:17:20.20 bitrate=N/A speed=13.6x    frame=25099 fps=327 q=-0.0 size=N/A time=00:17:26.83 bitrate=N/A speed=13.6x    frame=25280 fps=327 q=-0.0 size=N/A time=00:17:34.38 bitrate=N/A speed=13.6x    frame=25404 fps=326 q=-0.0 size=N/A time=00:17:39.55 bitrate=N/A speed=13.6x    frame=25578 fps=326 q=-0.0 size=N/A time=00:17:46.81 bitrate=N/A speed=13.6x    frame=25755 fps=326 q=-0.0 size=N/A time=00:17:54.19 bitrate=N/A speed=13.6x    frame=25944 fps=327 q=-0.0 size=N/A time=00:18:02.08 bitrate=N/A speed=13.6x    frame=26118 fps=327 q=-0.0 size=N/A time=00:18:09.33 bitrate=N/A speed=13.6x    frame=26311 fps=327 q=-0.0 size=N/A time=00:18:17.38 bitrate=N/A speed=13.6x    frame=26478 fps=327 q=-0.0 size=N/A time=00:18:24.35 bitrate=N/A speed=13.6x    frame=26665 fps=327 q=-0.0 size=N/A time=00:18:32.15 bitrate=N/A speed=13.6x    frame=26840 fps=327 q=-0.0 size=N/A time=00:18:39.45 bitrate=N/A speed=13.6x    frame=27018 fps=327 q=-0.0 size=N/A time=00:18:46.87 bitrate=N/A speed=13.7x    frame=27190 fps=327 q=-0.0 size=N/A time=00:18:54.04 bitrate=N/A speed=13.7x    frame=27375 fps=328 q=-0.0 size=N/A time=00:19:01.76 bitrate=N/A speed=13.7x    frame=27555 fps=328 q=-0.0 size=N/A time=00:19:09.27 bitrate=N/A speed=13.7x    frame=27720 fps=328 q=-0.0 size=N/A time=00:19:16.15 bitrate=N/A speed=13.7x    frame=27879 fps=328 q=-0.0 size=N/A time=00:19:22.78 bitrate=N/A speed=13.7x    frame=28054 fps=328 q=-0.0 size=N/A time=00:19:30.08 bitrate=N/A speed=13.7x    frame=28238 fps=328 q=-0.0 size=N/A time=00:19:37.75 bitrate=N/A speed=13.7x    frame=28418 fps=328 q=-0.0 size=N/A time=00:19:45.26 bitrate=N/A speed=13.7x    frame=28596 fps=328 q=-0.0 size=N/A time=00:19:52.69 bitrate=N/A speed=13.7x    frame=28763 fps=328 q=-0.0 size=N/A time=00:19:59.65 bitrate=N/A speed=13.7x    frame=28930 fps=328 q=-0.0 size=N/A time=00:20:06.62 bitrate=N/A speed=13.7x    frame=29099 fps=328 q=-0.0 size=N/A time=00:20:13.67 bitrate=N/A speed=13.7x    frame=29262 fps=328 q=-0.0 size=N/A time=00:20:20.46 bitrate=N/A speed=13.7x    frame=29433 fps=328 q=-0.0 size=N/A time=00:20:27.60 bitrate=N/A speed=13.7x    frame=29599 fps=328 q=-0.0 size=N/A time=00:20:34.52 bitrate=N/A speed=13.7x    frame=29759 fps=328 q=-0.0 size=N/A time=00:20:41.19 bitrate=N/A speed=13.7x    frame=29930 fps=328 q=-0.0 size=N/A time=00:20:48.33 bitrate=N/A speed=13.7x    frame=30055 fps=327 q=-0.0 size=N/A time=00:20:53.54 bitrate=N/A speed=13.7x    frame=30225 fps=327 q=-0.0 size=N/A time=00:21:00.63 bitrate=N/A speed=13.7x    frame=30397 fps=327 q=-0.0 size=N/A time=00:21:07.80 bitrate=N/A speed=13.7x    frame=30581 fps=327 q=-0.0 size=N/A time=00:21:15.48 bitrate=N/A speed=13.7x    frame=30743 fps=327 q=-0.0 size=N/A time=00:21:22.23 bitrate=N/A speed=13.7x    frame=30925 fps=328 q=-0.0 size=N/A time=00:21:29.83 bitrate=N/A speed=13.7x    frame=31083 fps=327 q=-0.0 size=N/A time=00:21:36.42 bitrate=N/A speed=13.7x    frame=31269 fps=328 q=-0.0 size=N/A time=00:21:44.17 bitrate=N/A speed=13.7x    frame=31444 fps=328 q=-0.0 size=N/A time=00:21:51.47 bitrate=N/A speed=13.7x    frame=31630 fps=328 q=-0.0 size=N/A time=00:21:59.23 bitrate=N/A speed=13.7x    frame=31799 fps=328 q=-0.0 size=N/A time=00:22:06.28 bitrate=N/A speed=13.7x    frame=31977 fps=328 q=-0.0 size=N/A time=00:22:13.70 bitrate=N/A speed=13.7x    frame=32148 fps=328 q=-0.0 size=N/A time=00:22:20.83 bitrate=N/A speed=13.7x    frame=32330 fps=328 q=-0.0 size=N/A time=00:22:28.43 bitrate=N/A speed=13.7x    frame=32467 fps=328 q=-0.0 size=N/A time=00:22:34.14 bitrate=N/A speed=13.7x    frame=32640 fps=328 q=-0.0 size=N/A time=00:22:41.36 bitrate=N/A speed=13.7x    frame=32786 fps=328 q=-0.0 size=N/A time=00:22:47.44 bitrate=N/A speed=13.7x    frame=32951 fps=328 q=-0.0 size=N/A time=00:22:54.33 bitrate=N/A speed=13.7x    frame=33121 fps=328 q=-0.0 size=N/A time=00:23:01.42 bitrate=N/A speed=13.7x    frame=33292 fps=328 q=-0.0 size=N/A time=00:23:08.55 bitrate=N/A speed=13.7x    frame=33455 fps=328 q=-0.0 size=N/A time=00:23:15.35 bitrate=N/A speed=13.7x    frame=33602 fps=327 q=-0.0 size=N/A time=00:23:21.48 bitrate=N/A speed=13.7x    frame=33750 fps=327 q=-0.0 size=N/A time=00:23:27.65 bitrate=N/A speed=13.6x    frame=33880 fps=327 q=-0.0 size=N/A time=00:23:33.07 bitrate=N/A speed=13.6x    frame=34041 fps=327 q=-0.0 size=N/A time=00:23:39.79 bitrate=N/A speed=13.6x    frame=34189 fps=326 q=-0.0 size=N/A time=00:23:45.96 bitrate=N/A speed=13.6x    frame=34331 fps=326 q=-0.0 size=N/A time=00:23:51.88 bitrate=N/A speed=13.6x    frame=34430 fps=326 q=-0.0 size=N/A time=00:23:56.01 bitrate=N/A speed=13.6x    frame=34596 fps=326 q=-0.0 size=N/A time=00:24:02.94 bitrate=N/A speed=13.6x    [Parsed_ssim_16 @ 000001beb0769740] SSIM Y:0.994157 (22.333703) U:0.993975 (22.200142) V:0.993581 (21.925563) All:0.994031 (22.240776)
[out#0/null @ 000001bea35b8a00] video:14903KiB audio:271276KiB subtitle:0KiB other streams:0KiB global headers:0KiB muxing overhead: unknown
frame=34683 fps=326 q=-0.0 Lsize=N/A time=00:24:06.57 bitrate=N/A speed=13.6x    
